<svg width="24" height="24" viewBox="0 0 24 24" fill="none" xmlns="http://www.w3.org/2000/svg">
<mask id="mask0_447_2097" style="mask-type:luminance" maskUnits="userSpaceOnUse" x="6" y="13" width="18" height="12">
<path fill-rule="evenodd" clip-rule="evenodd" d="M19.187 17.7633C17.581 19.4892 15.29 20.5684 12.7472 20.5684C12.4788 20.5684 12.2123 20.5553 11.9496 20.5316C11.1683 20.7395 10.3485 20.8508 9.50219 20.8508C8.36853 20.8508 7.28194 20.6523 6.27393 20.2885C8.01125 22.5452 10.7402 24.0001 13.8089 24.0001C19.0572 24.0001 23.3119 19.747 23.3119 14.4999C23.3119 14.0763 23.2829 13.6593 23.2301 13.25C22.4087 15.1584 20.98 16.7447 19.187 17.7633Z" fill="white"/>
</mask>
<g mask="url(#mask0_447_2097)">
<path fill-rule="evenodd" clip-rule="evenodd" d="M19.187 17.7633C17.581 19.4892 15.29 20.5684 12.7472 20.5684C12.4788 20.5684 12.2123 20.5553 11.9496 20.5316C11.1683 20.7395 10.3485 20.8508 9.50219 20.8508C8.36853 20.8508 7.28194 20.6523 6.27393 20.2885C8.01125 22.5452 10.7402 24.0001 13.8089 24.0001C19.0572 24.0001 23.3119 19.747 23.3119 14.4999C23.3119 14.0763 23.2829 13.6593 23.2301 13.25C22.4087 15.1584 20.98 16.7447 19.187 17.7633Z" fill="url(#paint0_linear_447_2097)"/>
</g>
<mask id="mask1_447_2097" style="mask-type:luminance" maskUnits="userSpaceOnUse" x="8" y="0" width="16" height="14">
<path fill-rule="evenodd" clip-rule="evenodd" d="M8.82861 1.87536C9.05043 1.85981 9.27512 1.85121 9.50226 1.85121C11.2228 1.85121 12.8361 2.30795 14.2284 3.10724C17.054 3.58648 19.4199 5.4122 20.6448 7.90133C22.0228 9.32761 22.9584 11.1844 23.2301 13.25C23.7249 12.0999 24 10.8316 24 9.49991C24 4.25276 19.7453 0.00012207 14.4973 0.00012207C12.3724 0.00012207 10.4104 0.697095 8.82861 1.87536Z" fill="white"/>
</mask>
<g mask="url(#mask1_447_2097)">
<path fill-rule="evenodd" clip-rule="evenodd" d="M8.82861 1.87536C9.05043 1.85981 9.27512 1.85121 9.50226 1.85121C11.2228 1.85121 12.8361 2.30795 14.2284 3.10724C17.054 3.58648 19.4199 5.4122 20.6448 7.90133C22.0228 9.32761 22.9584 11.1844 23.2301 13.25C23.7249 12.0999 24 10.8316 24 9.49991C24 4.25276 19.7453 0.00012207 14.4973 0.00012207C12.3724 0.00012207 10.4104 0.697095 8.82861 1.87536Z" fill="url(#paint1_linear_447_2097)"/>
</g>
<path fill-rule="evenodd" clip-rule="evenodd" d="M21.5423 11.7753C21.5423 14.0889 20.6481 16.1937 19.187 17.7636C20.9796 16.7442 22.4083 15.1591 23.2297 13.2503C22.958 11.1848 22.0224 9.32834 20.6444 7.90125C21.219 9.07051 21.5423 10.3855 21.5423 11.7753Z" fill="#886B25"/>
<mask id="mask2_447_2097" style="mask-type:luminance" maskUnits="userSpaceOnUse" x="0" y="1" width="9" height="20">
<path fill-rule="evenodd" clip-rule="evenodd" d="M0 11.351C0 15.4641 2.61519 18.9666 6.27399 20.2885C5.04048 18.6858 4.30667 16.6788 4.30667 14.4999C4.30667 14.4209 4.30708 14.3419 4.30953 14.2629C4.07748 13.4743 3.95225 12.6394 3.95225 11.7758C3.95225 10.0541 4.44746 8.4477 5.30281 7.09141C5.85655 4.97471 7.12117 3.14531 8.82861 1.87537C3.89413 2.22078 0 6.33059 0 11.351Z" fill="white"/>
</mask>
<g mask="url(#mask2_447_2097)">
<path fill-rule="evenodd" clip-rule="evenodd" d="M0 11.351C0 15.4641 2.61519 18.9666 6.27399 20.2885C5.04048 18.6858 4.30667 16.6788 4.30667 14.4999C4.30667 14.4209 4.30708 14.3419 4.30953 14.2629C4.07748 13.4743 3.95225 12.6394 3.95225 11.7758C3.95225 10.0541 4.44746 8.4477 5.30281 7.09141C5.85655 4.97471 7.12117 3.14531 8.82861 1.87537C3.89413 2.22078 0 6.33059 0 11.351Z" fill="url(#paint2_linear_447_2097)"/>
</g>
<path fill-rule="evenodd" clip-rule="evenodd" d="M11.9496 20.5321C8.31045 20.2047 5.31056 17.6619 4.30951 14.2634C4.30746 14.342 4.30664 14.4206 4.30664 14.5004C4.30664 16.6789 5.04045 18.6851 6.27397 20.2878C7.28198 20.652 8.36857 20.8505 9.50223 20.8505C10.3482 20.8505 11.1687 20.7396 11.9496 20.5321Z" fill="#027E8B"/>
<path fill-rule="evenodd" clip-rule="evenodd" d="M5.30273 7.092C6.86039 4.62334 9.61186 2.98301 12.7472 2.98301C13.2518 2.98301 13.7466 3.02558 14.2283 3.10743C12.836 2.30814 11.2223 1.85059 9.50218 1.85059C9.27544 1.85059 9.05076 1.85959 8.82812 1.87514C7.1215 3.14508 5.85606 4.97448 5.30273 7.092Z" fill="#007142"/>
<path fill-rule="evenodd" clip-rule="evenodd" d="M17.35 14.1877C17.2624 14.3153 17.093 14.3866 16.8732 14.3866H15.2255L15.221 16.3072C15.221 16.4247 15.1256 16.52 15.0082 16.52H14.7155C14.5985 16.52 14.5027 16.4247 14.5027 16.3072L14.5052 14.3866H13.735C13.8594 14.1095 13.8569 13.7796 13.7255 13.4432L13.0826 11.8393L14.7327 8.00576C14.7929 7.8617 14.8449 7.74465 14.8878 7.65502C14.9529 7.78558 15.02 7.93987 15.0495 8.00658L17.3618 13.672C17.4416 13.8762 17.4376 14.0596 17.35 14.1877ZM13.1366 14.1758C13.0658 14.2887 12.9295 14.3591 12.7535 14.3784C12.5763 14.3587 12.4392 14.2879 12.3684 14.1746C12.2886 14.0473 12.2873 13.8693 12.3643 13.672L12.7465 12.6902L13.1402 13.6732C13.2172 13.8705 13.216 14.0489 13.1366 14.1758ZM11.7705 14.3866H10.999L11.0015 16.3072C11.0015 16.4247 10.9057 16.52 10.7887 16.52H10.496C10.3786 16.52 10.2832 16.4247 10.2832 16.3072L10.2791 15.5399V14.3866H8.63104C8.41126 14.3866 8.24224 14.3153 8.15425 14.1877C8.06666 14.0596 8.06257 13.8762 8.14074 13.6765L10.4523 8.01394C10.4829 7.94273 10.5513 7.78639 10.6164 7.65502C10.6593 7.74506 10.7117 7.86252 10.7723 8.00658L12.4028 11.8401L11.7787 13.4432C11.6473 13.7796 11.6457 14.1091 11.7705 14.3866ZM17.9459 13.4392L15.6286 7.76269C15.3998 7.23801 15.2292 6.86149 14.8829 6.86108C14.5306 6.86354 14.364 7.26011 14.154 7.76023L12.7441 11.036L11.3514 7.76269C11.1406 7.26011 10.9737 6.86354 10.6217 6.86108C10.2759 6.86354 10.1044 7.23801 9.87275 7.76965L7.55673 13.4437C7.40162 13.8415 7.43027 14.2417 7.63572 14.5421C7.84076 14.8425 8.20337 15.0148 8.63105 15.0148H9.65052L9.65502 16.3073C9.65502 16.771 10.0324 17.1487 10.4961 17.1487H10.7887C11.2524 17.1487 11.6297 16.771 11.6297 16.3073V15.6745C11.6297 15.6528 11.6293 15.6291 11.6277 15.607V15.0148H12.6537C12.6881 15.0148 12.7204 15.0128 12.7531 15.0103C12.7851 15.0128 12.8162 15.0148 12.8505 15.0148H13.8766V15.607C13.8749 15.6291 13.8745 15.6528 13.8745 15.6745V16.3073C13.8745 16.771 14.2519 17.1487 14.7156 17.1487H15.0082C15.4719 17.1487 15.8492 16.771 15.8492 16.3073L15.8537 15.0148H16.8732C17.3009 15.0148 17.6639 14.8425 17.8689 14.5421C18.0744 14.2417 18.1026 13.8415 17.9459 13.4392Z" fill="#005779"/>
<defs>
<linearGradient id="paint0_linear_447_2097" x1="6.27409" y1="24.0002" x2="23.3117" y2="24.0002" gradientUnits="userSpaceOnUse">
<stop stop-color="#00A9CE"/>
<stop offset="1" stop-color="#0583A7"/>
</linearGradient>
<linearGradient id="paint1_linear_447_2097" x1="8.82837" y1="13.25" x2="23.9997" y2="13.25" gradientUnits="userSpaceOnUse">
<stop stop-color="#F5A018"/>
<stop offset="1" stop-color="#BC7F10"/>
</linearGradient>
<linearGradient id="paint2_linear_447_2097" x1="-0.00023287" y1="20.2883" x2="8.82838" y2="20.2883" gradientUnits="userSpaceOnUse">
<stop stop-color="#31A943"/>
<stop offset="1" stop-color="#098237"/>
</linearGradient>
</defs>
</svg>
